# xmcd
#
# Track frame offsets:
#	150
#	13889
#	29157
#	44776
#	61485
#	80480
#	96017
#	110678
#	124283
#	137845
#	155828
#	171779
#
# Disc length: 2500 seconds
#
# Revision: 1
# Processed by: cddbd v1.5PL3 Copyright (c) Steve Scherf et al.
# Submitted via: EasyCDDAExtractor 6.5.7.1
#
DISCID=b409c20c
DTITLE=Balanço Do Tchê - Baileiros
DYEAR=2004
DGENRE=Gauchas
TTITLE0=Vanerão Pra Nega Véia
TTITLE1=Baileiro
TTITLE2=Nosso Povo
TTITLE3=Peão Por Destino
TTITLE4=Andei Falando Com As Estrelas
TTITLE5=O Gauchão
TTITLE6=Dor De Cotovelo
TTITLE7=Quando Um Baile É Campeiro
TTITLE8=Ela Chorou De Amor
TTITLE9=Bailes Do Rio Grande
TTITLE10=Conquista
TTITLE11=Marcação Do Vanerão
EXTD=
EXTT0=
EXTT1=
EXTT2=
EXTT3=
EXTT4=
EXTT5=
EXTT6=
EXTT7=
EXTT8=
EXTT9=
EXTT10=
EXTT11=
PLAYORDER=
